<svg xmlns="http://www.w3.org/2000/svg" viewBox="0 0 1142.99 396.35"><g id="Layer_2" data-name="Layer 2"><g id="Layer_1-2" data-name="Layer 1"><path d="M121.72,246.78l-.09-.56a5.22,5.22,0,0,0,1.06-.19l.1.11A86.65,86.65,0,0,1,154.11,235a93.56,93.56,0,0,1,16.6-.7l4.21.36,1.06.08c.35,0,.7.1,1.05.15l2.12.32c2.83.31,5.66,1,8.5,1.6a19.5,19.5,0,0,0,1.82-4.73,14.43,14.43,0,0,0,.1-7.2c-.55-2-1.69-3.35-3.2-3.67a3.29,3.29,0,0,0-1.17,0,21.57,21.57,0,0,0-3.34-10.88,11.72,11.72,0,0,0-3.39-3.41,9.9,9.9,0,0,0-4.26-1.4,8,8,0,0,0-3.18.33,19.66,19.66,0,0,0-6.14-7.09,13.86,13.86,0,0,0-8.23-2.24,14.06,14.06,0,0,0-4.94,1.47,13.86,13.86,0,0,0-2.18,1.39,16.38,16.38,0,0,0-1.93,1.89,8.71,8.71,0,0,0-5.3-.74,9.24,9.24,0,0,0-5.6,4,16.06,16.06,0,0,0-2.27,7.86,6.56,6.56,0,0,0-2.82.27,7.51,7.51,0,0,0-3.22,2.23,10,10,0,0,0-1.17,1.72,12.19,12.19,0,0,0-.8,2.1,10.92,10.92,0,0,0-3.32-1.29,7.07,7.07,0,0,0-3.27,0,17.3,17.3,0,0,0-7.41-5.37,9.33,9.33,0,0,0-7.54.5,8.56,8.56,0,0,0-2.24,2,24,24,0,0,0-5.18-2.43,19.62,19.62,0,0,0-5.24-.91,15,15,0,0,0-5,.65,13.72,13.72,0,0,0-4.47,2.28A15.12,15.12,0,0,0,77,225a22.11,22.11,0,0,0,.5,6.86,30.39,30.39,0,0,0,2.64,7.1c-4.11-.55-7.88.52-10.37,3.23-2.78,3.06-3.38,7.55-1.91,12.15s4.92,9.26,9.78,13.15a3.23,3.23,0,0,0-.86.79c-.89,1.23-.75,3,.26,4.76a10.15,10.15,0,0,0,2.14,2.54l.71.6c.26.18.54.34.81.51l1.73,1c.79.47,1.54.94,2.22,1.42a21,21,0,0,0,2.15,1c.4-.61.92-1.4,1.48-2.18s1.15-1.59,1.74-2.4c1.23-1.6,2.49-3.22,3.84-4.79a124.09,124.09,0,0,1,8.53-9.09c1.48-1.45,3-2.81,4.57-4.19s3.14-2.67,4.78-3.89,3.28-2.41,4.92-3.61S120,247.75,121.72,246.78Z" style="fill:#afbaa2"/><path d="M218.93,243.68l.34-1.05a6.25,6.25,0,0,0,1.48.79l0,.3a167.27,167.27,0,0,1,49.11,9.14,170.7,170.7,0,0,1,22.46,10c3.53,2.13,7.18,4,10.58,6.42l2.6,1.7c.44.28.88.55,1.3.85l1.26.94,5,3.7a52.44,52.44,0,0,0,6.91-7.34,37.56,37.56,0,0,0,6.78-12.55c1-3.74.67-6.78-1.18-8.14a3.65,3.65,0,0,0-1.64-.66c3.55-7.76,5.29-15.06,5.11-21.2s-2.42-10.82-6.43-13.16A10,10,0,0,0,318,212a37.34,37.34,0,0,0-2.19-16.77c-2-4.51-5.12-8-9.23-9.73-5-1.92-10.61-1.43-16.15,1.71a11.33,11.33,0,0,0-6.34-5.51c-3.43-1-7.19,0-10.71,2.48s-6.86,6.75-9.59,12a8.53,8.53,0,0,0-3.86-2,9.43,9.43,0,0,0-6,1,17.58,17.58,0,0,0-5.71,4.84c-1.72-4.26-4.25-7.39-7.33-8.57-.62-6.66-2.33-12.45-5-16.66s-6.11-6.66-10-6.92a10.13,10.13,0,0,0-4.47.92,50.91,50.91,0,0,0-4.6-9.64,34.34,34.34,0,0,0-5.94-7.25c-4.35-4-9.41-6-14.64-5.77a18.53,18.53,0,0,0-9.12,3.22,27.12,27.12,0,0,0-7.33,7.86,45.41,45.41,0,0,0-5,11.61,69.76,69.76,0,0,0-2.38,14.46,30.36,30.36,0,0,0-3.83-3.79,20.33,20.33,0,0,0-4.06-2.56,12.87,12.87,0,0,0-8.35-1.14c-6.2,1.33-10.69,7.51-12.46,16.35s-.9,20.18,2.51,32.14a3.6,3.6,0,0,0-1.76.1c-2.15.7-3.34,3.49-3.3,7.34a26.22,26.22,0,0,0,.25,3.06,30.48,30.48,0,0,0,.75,3.35c.16.58.34,1.17.52,1.77a19.12,19.12,0,0,0,.75,1.77c.53,1.19,1.08,2.42,1.62,3.69.7,1.68,1.32,3.34,1.81,4.95s1.36,3,2,4.3l1.54-.56.88-.32,1-.32c1.26-.44,2.66-.87,4-1.29,2.77-.85,5.65-1.65,8.57-2.38,5.85-1.48,11.86-2.7,17.9-3.64s12.11-1.69,18.17-2.05S213,243.46,218.93,243.68Z" style="fill:#afbaa2"/><path d="M284.75,226.19a192.64,192.64,0,0,0-91.26-22.84C86.79,203.35.27,289.71,0,396.35H387A193.46,193.46,0,0,0,284.75,226.19Z" style="fill:#c8d5b9"/><path d="M995,259.28c.08-.18.15-.35.23-.52a5.26,5.26,0,0,0,1,.4l0,.15a86.4,86.4,0,0,1,32.39,7.41A92.13,92.13,0,0,1,1043,275l3.36,2.56.85.63c.28.22.54.47.81.7l1.62,1.4c2.21,1.78,4.22,3.91,6.31,5.91a19.1,19.1,0,0,0,4.07-3,14.44,14.44,0,0,0,4-6c.59-2,.37-3.74-.73-4.81a3,3,0,0,0-1-.65,21.49,21.49,0,0,0,3-11,11.64,11.64,0,0,0-1-4.69,9.86,9.86,0,0,0-2.84-3.47,8,8,0,0,0-2.87-1.43,19.64,19.64,0,0,0-1.37-9.27,13.83,13.83,0,0,0-5.74-6.31,14.08,14.08,0,0,0-5-1.41,14.93,14.93,0,0,0-2.59,0,17.23,17.23,0,0,0-2.64.56,8.79,8.79,0,0,0-4.07-3.47,9.29,9.29,0,0,0-6.88.37,16.1,16.1,0,0,0-6.13,5.42,6.64,6.64,0,0,0-2.52-1.29,7.57,7.57,0,0,0-3.92.16,9.32,9.32,0,0,0-1.9.82,12,12,0,0,0-1.81,1.35,11,11,0,0,0-2.11-2.88,7,7,0,0,0-2.77-1.72,17.36,17.36,0,0,0-3.38-8.51,9.3,9.3,0,0,0-6.63-3.62,8.75,8.75,0,0,0-2.93.44,24.12,24.12,0,0,0-3.08-4.83,19.52,19.52,0,0,0-3.93-3.58,14.64,14.64,0,0,0-4.59-2.14,13.58,13.58,0,0,0-5-.48,15.06,15.06,0,0,0-10.68,6.1,22.1,22.1,0,0,0-3.27,6.05,30.09,30.09,0,0,0-1.57,7.41c-3.18-2.67-6.94-3.78-10.49-2.84-4,1.09-6.9,4.56-8.12,9.23s-.82,10.46,1.19,16.34a3.21,3.21,0,0,0-1.15.21c-1.41.57-2.25,2.14-2.33,4.16a9.8,9.8,0,0,0,.44,3.29c.08.29.18.59.28.89s.27.57.41.86q.44.88.9,1.8c.41.82.79,1.61,1.12,2.39a20,20,0,0,0,1.25,2c.66-.3,1.53-.68,2.42-1s1.82-.72,2.75-1.09c1.9-.69,3.83-1.38,5.82-2a121.27,121.27,0,0,1,12.07-3.09c2-.44,4.07-.75,6.11-1.09s4.08-.56,6.11-.72,4.07-.27,6.09-.41S993,259.17,995,259.28Z" style="fill:#afbaa2"/><path d="M988.49,242.35A154.5,154.5,0,0,0,834,396.35h309A154.5,154.5,0,0,0,988.49,242.35Z" style="fill:#c8d5b9"/><path d="M788.29,205.17l1.12-.59a24.32,24.32,0,0,0,2.59,2.27l0,.33,3.16,1.72,1.58.86.79.43.39.22.25.16q2,1.26,4,2.44l4.2,2.93c.71.44,1.43,1.08,2.14,1.63l2.16,1.69a181.48,181.48,0,0,1,17.5,16.34,348.74,348.74,0,0,1,33.25,42.23c5.26,7.68,10.33,15.65,15.26,23.77S886.4,318,891,326.42s9.11,17,13.43,25.56c2.14,4.31,4.27,8.63,6.31,12.94s4.07,8.67,5.89,12.76a22.79,22.79,0,0,0,4.91-.6,34.47,34.47,0,0,0,5-1.75c10.34-3.92,15.52-14.48,11.51-22.87a13.91,13.91,0,0,0-1.9-3A44.41,44.41,0,0,0,948,327.14a35.9,35.9,0,0,0-3.59-24,34.31,34.31,0,0,0-5.2-7.22c5.64-14,5-29.88-3.33-43.08a45.73,45.73,0,0,0-8.9-10.33,47.7,47.7,0,0,0-11.3-7.12,29.31,29.31,0,0,0-5.39-13.14A29.61,29.61,0,0,0,895.5,211.6a33.34,33.34,0,0,0-18.39-.53,26.89,26.89,0,0,0-4.33-6.71,27.22,27.22,0,0,0-19.4-8.94,30,30,0,0,0-2-8.69,28.79,28.79,0,0,0-4.85-7.56,32.14,32.14,0,0,0,1.56-10.29,28.42,28.42,0,0,0-1.88-10.22,33.29,33.29,0,0,0-2.32-4.82c-.46-.78-.94-1.55-1.47-2.31s-1.16-1.44-1.79-2.14a38.12,38.12,0,0,0-4.16-3.95c-.38-.31-.76-.61-1.16-.9s-.7-.51-1.07-.76c-.7-.46-1.43-.9-2.18-1.31a30.61,30.61,0,0,0-7.36-2.82,53.49,53.49,0,0,0-2.84-12.37,51.54,51.54,0,0,0-5.64-11.1,47.71,47.71,0,0,0-18.87-16.44,47.65,47.65,0,0,0-30.58-3.64,52.8,52.8,0,0,0-7.46,2.13,56.35,56.35,0,0,0-7.17,3.28,58.79,58.79,0,0,0-12.9,9.6A37.64,37.64,0,0,0,719,91.59c-10.35-4.15-21.63-3.16-31.39,1.73s-18.08,13.77-23,25.23a14.51,14.51,0,0,0-3.15-1.58c-8.81-3.1-18.83,3.08-21.78,13.74a25,25,0,0,0-1.25,10.11c3,1,6.22,2.07,9.4,3.17s6.4,2.26,9.59,3.38l9.63,3.51,9.61,3.61q19.21,7.35,38.12,15.43C740,180.72,764.72,192.33,788.29,205.17Z" style="fill:#3d755a"/><path d="M894.35,274.35c-49-126.94-172.14-217-316.36-217-125.2,0-234.53,67.88-293.24,168.84A337.36,337.36,0,0,0,239,396.35H917A338.14,338.14,0,0,0,894.35,274.35Z" style="fill:#8fc0a9"/><path d="M700.83,101.29l.81-.79a10.46,10.46,0,0,0,1.53,1.52l0,.3c41.88,19.1,80.57,43.91,111.51,74.6a40.39,40.39,0,0,0,8-6.21,31.83,31.83,0,0,0,7.92-12c1.25-3.82,1-7.19-1-9.13a5,5,0,0,0-1.82-1.12c4.31-7.4,6.75-14.77,7.06-21.24a25.32,25.32,0,0,0-.18-4.65,19.37,19.37,0,0,0-1-4.13,15.32,15.32,0,0,0-4.5-6.52,13.94,13.94,0,0,0-5-2.6c2.69-12.89,0-24.21-8.07-29.88a20.36,20.36,0,0,0-8.05-3.3,26.69,26.69,0,0,0-9.35.28A13.05,13.05,0,0,0,793.09,69c-3.37-2.06-7.49-2.44-11.92-1.11a34.78,34.78,0,0,0-13.41,8.19,10.91,10.91,0,0,0-3.68-3.38c-4.07-2.26-9.22-1.8-14.51,1-.6-4.81-2.34-8.82-5.29-11.18,1.52-6.58,1.66-12.75.41-17.76s-3.91-8.75-7.81-10.59a12.6,12.6,0,0,0-4.9-1.05,53.9,53.9,0,0,0-.92-10.85,38.2,38.2,0,0,0-3-9.2A22.69,22.69,0,0,0,716.18,1.41,21,21,0,0,0,706,.16a30.08,30.08,0,0,0-10.66,3.58c-7.09,3.9-13.9,10.61-19.63,19.42a26.2,26.2,0,0,0-4.81-9.59,15.88,15.88,0,0,0-7.68-5.29c-6.76-2.06-14.35.89-20.93,7.43S630.1,32.31,626.7,44.26a5.5,5.5,0,0,0-1.94-.92c-2.72-.66-5.67,1-8.11,4.15a22.66,22.66,0,0,0-3.17,5.83,40,40,0,0,0-1.9,7.56c-.32,1.77-.64,3.48-1,5.18a45,45,0,0,0-.28,4.77l2.53.55,2.72.62c1.83.42,3.72.89,5.61,1.36,3.79,1,7.63,2,11.47,3.07,7.69,2.18,15.4,4.58,23.05,7.17C671,88.78,686.15,94.67,700.83,101.29Z" style="fill:#637e74"/><path d="M288.59,269.35l-.18-.25a4.81,4.81,0,0,0,.47-.62H289c3.42-8,7-15.87,10.9-23.52a204.74,204.74,0,0,1,12.52-21.84,6.93,6.93,0,0,0-1.82-1.8c-2.28-1.56-5-1.45-6.1.25a2.52,2.52,0,0,0-.31.69,11.16,11.16,0,0,0-6.07,0,7.43,7.43,0,0,0-4.23,3.27,6.75,6.75,0,0,0-.73,1.79,10.17,10.17,0,0,0-8.17,5.05,9.31,9.31,0,0,0-.86,5.69,5.53,5.53,0,0,0-2,2.25c-1.16,2.41-.44,5.35,1.61,7.67a5.34,5.34,0,0,0-1,1.42,6,6,0,0,0,0,4.73,6.08,6.08,0,0,0-3.13,2.37c-3.45-.31-6.56,1.06-7.72,3.74a5.43,5.43,0,0,0-.41,1.63c-4,.53-7.4,2.67-8.77,6.08-1.75,4.24.11,9.21,4.18,12.72A7.71,7.71,0,0,0,262.4,285c-1.68,4.49,1.6,9.84,7.34,12.24a2.6,2.6,0,0,0-.36.68c-.69,1.94.9,4.21,3.52,5.07a7.16,7.16,0,0,0,2.52.38c1.95-5.63,4.1-11.41,6.29-17.08S286.2,274.94,288.59,269.35Z" style="fill:#3d755a"/><path d="M429.09,130.27c-.06-.37-.13-.75-.2-1.13a13.61,13.61,0,0,0,2.33-.67l.24.2,4.08-2.77,2-1.38c.36-.25.64-.42.93-.59l.86-.52c2.32-1.37,4.52-2.8,6.91-4.2l7.71-4.13,1-.53,1-.49,2.07-1,4.16-2c11.25-5.24,23.29-10.19,35.82-14.66s25.37-8.66,38.41-12.52c6.52-1.92,13.07-3.78,19.64-5.53,3.29-.88,6.57-1.75,9.84-2.57l4.87-1.22,4.76-1.15a25.49,25.49,0,0,0-.14-4.83,44.07,44.07,0,0,0-.85-5.21c-2.15-10.84-9.34-18.37-15.7-16.75a7.18,7.18,0,0,0-2.27,1c-4.23-7.58-9.55-13.51-15.31-17.17s-11.92-5-17.66-3.28A18.49,18.49,0,0,0,518,30a42.51,42.51,0,0,0-15.63-9.8A25.69,25.69,0,0,0,486.28,20a26.45,26.45,0,0,0-14.56,12.83,16.5,16.5,0,0,0-10.2.32,17.65,17.65,0,0,0-9.36,9.42,33.51,33.51,0,0,0-2.39,16.09,15.07,15.07,0,0,0-5.54,1.18c-4.85,2.21-8,7.06-9.28,13.05a18.45,18.45,0,0,0-13.4-1.36,39.06,39.06,0,0,0-7.63-6.1,28.69,28.69,0,0,0-8.11-3.3,22.31,22.31,0,0,0-8.11-.4,17.6,17.6,0,0,0-3.58.91,16.06,16.06,0,0,0-3.21,1.67,15.84,15.84,0,0,0-4,4,45.7,45.7,0,0,0-20.44-6.1A29.22,29.22,0,0,0,357,63.39a24.85,24.85,0,0,0-8.24,4.13,26.22,26.22,0,0,0-7.3,8.8,33.65,33.65,0,0,0-3.27,11.62c-.87,8.46.94,18.14,5.14,27.81-8-1.72-15.48-.5-20.77,4.13a20,20,0,0,0-6.08,10,31.5,31.5,0,0,0-.46,13.17c1.52,9.48,6.65,19.9,14.79,29.31a7,7,0,0,0-2.08,1.36c-4.73,4.48-2.2,14.6,5.93,22.1a36.14,36.14,0,0,0,7.93,6.22L345,199.7l2.48-2.38,5.08-4.81,5.18-4.8L363,183c7-6.33,14.23-12.52,21.48-18.59C399,152.3,413.93,140.77,429.09,130.27Z" style="fill:#3d755a"/><path d="M506,257.35c0,17.12-13.88,19-31,19s-31-1.88-31-19a31,31,0,0,1,62,0Z" style="fill:#719085"/><path d="M718,263.35c0,17.12-13.88,19-31,19s-31-1.88-31-19a31,31,0,0,1,62,0Z" style="fill:#719085"/></g></g></svg>